<?xml version="1.0" encoding="utf-8"?>
<!-- Generator: Adobe Illustrator 19.2.0, SVG Export Plug-In . SVG Version: 6.00 Build 0)  -->
<svg version="1.1" id="Layer_1" xmlns="http://www.w3.org/2000/svg" xmlns:xlink="http://www.w3.org/1999/xlink" x="0px" y="0px"
	 viewBox="0 0 500 500" style="enable-background:new 0 0 500 500;" xml:space="preserve">
<style type="text/css">
	.st0{fill:#222222;stroke:#1F824F;stroke-width:2;stroke-miterlimit:10;}
	.st1{fill:#222222;stroke:#1F824F;stroke-miterlimit:10;}
	.st2{fill:#1F824F;}
	.st3{fill:#D1D3D4;}
	.st4{fill:#222222;}
	.st5{display:none;}
	.st6{display:none;fill:#0F0F0F;}
	.st7{display:none;fill:none;stroke:#0F0F0F;stroke-width:3;stroke-miterlimit:10;}
	.st8{display:none;fill:none;stroke:#0F0F0F;stroke-width:2;stroke-miterlimit:10;}
</style>
<path class="st0" d="M165.3,83.4c0,0,82.2-113.2,170.6-0.1l3.2,67.7l-9.8,10.7l1.1,33.8l-29.2,38.3l25.6-21.6l-6.6,28l-50.8,57.6
	h-39.7l-47.3-58.3l-7.6-26.7l23.2,23.8l-28.2-41l0.6-36l-9.1-8.4L165.3,83.4z"/>
<polygon class="st1" points="160.5,170.1 167.3,179.1 167.3,162.4 160.5,154.4 "/>
<polygon class="st1" points="332.3,162.3 339.3,154.4 340.8,171.4 332.3,181.2 "/>
<polygon class="st2" points="236.4,175.9 225.2,175.9 203.4,163.6 172.9,159.9 197.8,191 205.6,184.7 226.6,185.5 "/>
<polygon class="st2" points="265.5,174.8 276.7,174.8 298.7,162.5 329,158.8 304.1,189.9 296.4,183.6 275.5,184.4 "/>
<polygon class="st3" points="189.7,169.2 197.8,179.8 221.5,180.1 211.7,170.3 "/>
<polygon class="st3" points="313.1,170.3 304.8,180.9 281.1,181.2 291.1,171.4 "/>
<polygon class="st0" points="186.6,252.7 229,302 272.1,302 313.4,252.9 313.4,281.9 395.3,309.9 461.2,304.6 496.3,358.2 
	481.4,426.7 452.9,406.8 349.1,472.3 152.7,469.3 45.6,405.5 21.5,426.3 3.7,360.7 7,355.6 10.8,349.7 39.8,304.6 187.3,282.5 "/>
<polygon class="st0" points="187,275.9 45.2,297.6 45.6,405.5 152.7,469.3 249.7,355.1 "/>
<polygon class="st4" points="313.4,275.9 453.7,297.6 452.9,406.8 249.7,355.1 "/>
<g id="UiN2S5_1_" class="st5">
</g>
<polygon class="st6" points="15.5,360.9 41.2,360.9 41.2,401 53.8,401 53.8,381 60.8,381 60.8,388.6 77.8,389 77.8,363.2 
	101.1,363.3 101.1,381 107.9,381 107.9,394.8 115.4,394.9 115.4,350 133.9,350 133.9,390.8 138.5,390.8 138.5,401 147.6,401 
	147.6,369.4 164.7,369.7 164.7,389.6 168.4,389.4 168.4,378.1 183.5,378.4 183.5,398.6 191.6,398.8 191.6,385 196.9,384.9 
	196.9,354 221.2,354.2 221.2,401 232.9,401 232.9,391.5 237.6,391 237.6,350 256.2,350 256.2,375.5 267.8,375.5 267.8,348.8 
	288.8,348.8 288.8,379.3 294,379.3 294,306 319.9,306 319.9,314.2 360.4,314.2 360.4,352.3 374.9,343.2 388,351.1 388,317.6 
	397.9,317.4 397.9,397.9 401.7,397.7 401.7,374.3 411.3,374.3 411.3,316 414.9,316 414.9,311.3 418.1,311.4 418.1,301.1 
	418.1,294.6 421.1,294.6 421.1,291.6 421.1,288.5 426.3,288.5 426.3,294.9 428.5,294.9 428.5,311.5 430.9,311.5 430.9,316.1 
	434.5,316.3 434.5,344.8 443.6,344.8 443.6,319.5 454.6,319.5 454.6,315.7 462.3,316.1 462.3,307.3 466.1,306.5 466.1,291.2 
	469.5,290.8 469.5,319.5 472.2,319.5 472.2,291.6 475.3,290.5 475.3,316.9 483.7,316.9 483.7,321.8 493.7,319.5 493.7,354.3 
	493.7,451.9 493.7,496.1 493.7,500 0,500 0,409.6 9.2,409 8,394.2 14.8,394.2 "/>
<line class="st7" x1="4.8" y1="370.3" x2="277.6" y2="370.3"/>
<line class="st7" x1="4.8" y1="378" x2="277.6" y2="378"/>
<path class="st7" d="M4.8,347.6c0,0,52.8-25.6,65.7-52.7"/>
<line class="st7" x1="70.5" y1="293.2" x2="70.5" y2="392"/>
<path class="st7" d="M6.3,360.2c0,0,51.5-24.8,64.2-51.2"/>
<line class="st7" x1="88.5" y1="293.2" x2="88.5" y2="392"/>
<path class="st7" d="M88.5,294.9c0,0,33,42.2,107.1,75.3"/>
<path class="st7" d="M88.5,312.2c0,0,35.3,37.1,91.2,58.1"/>
<line class="st8" x1="70.5" y1="297.2" x2="88.5" y2="315.1"/>
<line class="st8" x1="70.5" y1="314.6" x2="88.5" y2="332.6"/>
<line class="st8" x1="70.5" y1="330.5" x2="88.5" y2="348.5"/>
<line class="st8" x1="70.5" y1="346.9" x2="88.5" y2="364.9"/>
<line class="st8" x1="70.5" y1="364.9" x2="88.5" y2="351"/>
<line class="st8" x1="70.5" y1="348.5" x2="88.5" y2="334.6"/>
<line class="st8" x1="70.5" y1="332.6" x2="88.5" y2="318.7"/>
<line class="st8" x1="70.5" y1="316" x2="88.5" y2="302.1"/>
<line class="st8" x1="70.5" y1="297.6" x2="89.6" y2="297.6"/>
<polygon class="st0" points="349.1,472.3 249.7,355.1 313.4,275.9 453.7,297.6 452.9,406.8 "/>
</svg>
