<?xml version="1.0" encoding="utf-8"?>
<!-- Generator: Adobe Illustrator 19.2.0, SVG Export Plug-In . SVG Version: 6.00 Build 0)  -->
<svg version="1.1" id="Layer_1" xmlns="http://www.w3.org/2000/svg" xmlns:xlink="http://www.w3.org/1999/xlink" x="0px" y="0px"
	 viewBox="0 0 500 500" style="enable-background:new 0 0 500 500;" xml:space="preserve">
<style type="text/css">
	.st0{fill:#222222;stroke:#1F824F;stroke-width:4;stroke-miterlimit:10;}
	.st1{fill:#10140D;stroke:#1F824F;stroke-width:2;stroke-miterlimit:10;}
	.st2{fill:#1F824F;}
	.st3{fill:#B3B3B3;stroke:#1F824F;stroke-width:2;stroke-miterlimit:10;}
	.st4{fill:#063619;stroke:#1F824F;stroke-width:4;stroke-miterlimit:10;}
	.st5{display:none;}
	.st6{display:none;fill:#0F0F0F;}
	.st7{display:none;fill:none;stroke:#0F0F0F;stroke-width:3;stroke-miterlimit:10;}
	.st8{display:none;fill:none;stroke:#0F0F0F;stroke-width:2;stroke-miterlimit:10;}
</style>
<path class="st0" d="M179.2,48.2c0,0,69.5-99.4,144.2-0.1l2.7,59.4l-8.3,9.4l0.9,29.6L294,180.2l21.6-19l-5.6,24.5l-42.9,50.5h-33.6
	l-40-51.2l-6.4-23.4l19.6,20.9l-23.9-36l0.5-31.6l-7.7-7.4L179.2,48.2z"/>
<polygon class="st1" points="173,131.7 178.7,139.6 178.7,124.9 173,117.9 "/>
<polygon class="st1" points="322.4,124.8 328.3,117.9 329.6,132.8 322.4,141.4 "/>
<polygon class="st2" points="239.3,123.6 229.8,123.6 211.3,112.8 185.6,109.5 206.6,136.9 213.2,131.3 231,132 "/>
<polygon class="st2" points="263.8,124.6 273.3,124.6 291.9,113.8 317.5,110.5 296.5,137.9 289.9,132.3 272.2,133 "/>
<polygon class="st3" points="199.7,118.6 206.6,128 226.6,128.2 218.3,119.6 "/>
<polygon class="st3" points="304.1,119.6 297,129 277,129.2 285.5,120.6 "/>
<polygon class="st0" points="197.2,200.8 233,244.1 269.4,244.1 304.3,201 304.3,226.5 373.5,251 429.2,246.4 458.9,293.4 
	446.3,353.6 422.2,336.1 334.5,393.6 334.5,416.5 250.6,494.1 168.5,415.2 168.5,391 78,335 57.6,353.2 42.6,295.6 45.4,291.1 
	48.5,286 73.1,246.4 197.8,227 "/>
<polygon class="st4" points="195.5,219.1 75.6,238.2 76,333 166.5,389 166.5,413.5 248.6,492.1 248.5,288.7 "/>
<polygon class="st4" points="306.3,219.1 424.9,238.2 424.2,334.1 336.5,391.6 336.5,414.5 252.6,492.1 252.5,288.7 "/>
<g id="UiN2S5_1_" class="st5">
</g>
<polygon class="st6" points="15.5,360.9 41.2,360.9 41.2,401 53.8,401 53.8,381 60.8,381 60.8,388.6 77.8,389 77.8,363.2 
	101.1,363.3 101.1,381 107.9,381 107.9,394.8 115.4,394.9 115.4,350 133.9,350 133.9,390.8 138.5,390.8 138.5,401 147.6,401 
	147.6,369.4 164.7,369.7 164.7,389.6 168.4,389.4 168.4,378.1 183.5,378.4 183.5,398.6 191.6,398.8 191.6,385 196.9,384.9 
	196.9,354 221.2,354.2 221.2,401 232.9,401 232.9,391.5 237.6,391 237.6,350 256.2,350 256.2,375.5 267.8,375.5 267.8,348.8 
	288.8,348.8 288.8,379.3 294,379.3 294,306 319.9,306 319.9,314.2 360.4,314.2 360.4,352.3 374.9,343.2 388,351.1 388,317.6 
	397.9,317.4 397.9,397.9 401.7,397.7 401.7,374.3 411.3,374.3 411.3,316 414.9,316 414.9,311.3 418.1,311.4 418.1,301.1 
	418.1,294.6 421.1,294.6 421.1,291.6 421.1,288.5 426.3,288.5 426.3,294.9 428.5,294.9 428.5,311.5 430.9,311.5 430.9,316.1 
	434.5,316.3 434.5,344.8 443.6,344.8 443.6,319.5 454.6,319.5 454.6,315.7 462.3,316.1 462.3,307.3 466.1,306.5 466.1,291.2 
	469.5,290.8 469.5,319.5 472.2,319.5 472.2,291.6 475.3,290.5 475.3,316.9 483.7,316.9 483.7,321.8 493.7,319.5 493.7,354.3 
	493.7,451.9 493.7,496.1 493.7,500 0,500 0,409.6 9.2,409 8,394.2 14.8,394.2 "/>
<line class="st7" x1="4.8" y1="370.3" x2="277.6" y2="370.3"/>
<line class="st7" x1="4.8" y1="378" x2="277.6" y2="378"/>
<path class="st7" d="M4.8,347.6c0,0,52.8-25.6,65.7-52.7"/>
<line class="st7" x1="70.5" y1="293.2" x2="70.5" y2="392"/>
<path class="st7" d="M6.3,360.2c0,0,51.5-24.8,64.2-51.2"/>
<line class="st7" x1="88.5" y1="293.2" x2="88.5" y2="392"/>
<path class="st7" d="M88.5,294.9c0,0,33,42.2,107.1,75.3"/>
<path class="st7" d="M88.5,312.2c0,0,35.3,37.1,91.2,58.1"/>
<line class="st8" x1="70.5" y1="297.2" x2="88.5" y2="315.1"/>
<line class="st8" x1="70.5" y1="314.6" x2="88.5" y2="332.6"/>
<line class="st8" x1="70.5" y1="330.5" x2="88.5" y2="348.5"/>
<line class="st8" x1="70.5" y1="346.9" x2="88.5" y2="364.9"/>
<line class="st8" x1="70.5" y1="364.9" x2="88.5" y2="351"/>
<line class="st8" x1="70.5" y1="348.5" x2="88.5" y2="334.6"/>
<line class="st8" x1="70.5" y1="332.6" x2="88.5" y2="318.7"/>
<line class="st8" x1="70.5" y1="316" x2="88.5" y2="302.1"/>
<line class="st8" x1="70.5" y1="297.6" x2="89.6" y2="297.6"/>
</svg>
